
        <svg xmlns="http://www.w3.org/2000/svg" xmlns:xlink="http://www.w3.org/1999/xlink" version="1.1" width="3223.2558139534885" 
        height="3223.2558139534885" viewBox="0 0 3223.2558139534885 3223.2558139534885">
			<rect fill="#ffffff" width="3223.2558139534885" height="3223.2558139534885"/>
			<g transform="scale(11.162790697674419) translate(10, 10)">
				<defs id="SvgjsDefs1200"></defs><g id="SvgjsG1201" featureKey="rootContainer" transform="matrix(2.5816524028778076,0,0,2.5816524028778076,0,0)" fill="#111111"><path xmlns="http://www.w3.org/2000/svg" d="M0 0v104.1h104.1V0zm101.7 101.7H2.4V2.4h99.3z"></path></g><g id="SvgjsG1202" featureKey="monogramFeature-0" transform="matrix(2.25,0,0,2.25,86.3190131187439,14.351776599884033)" fill="#64d7d6"><path d="M33.369 41.016 l2.9297 0 l-0.38086 1.7871 l-15.117 0 l-3.9844 17.314 l-14.736 0 l4.4531 -19.102 l-2.9883 0 l5.7129 -24.727 l31.113 0 l-2.5781 11.104 l-16.377 0 l-1.0254 4.3066 l15.088 0 z"></path></g><g id="SvgjsG1203" featureKey="nameFeature-0" transform="matrix(1.796622395515442,0,0,1.796622395515442,34.00000042834815,154.66833962319754)" fill="#111111"><path d="M9.4 21.24 l0 3.76 l-5.64 0 l0 14.92 l-3.76 0 l0 -28.48 l9.32 0 l0 3.8 l-5.56 0 l0 6 l5.64 0 z M15.2 11.36 l0 28.48 l-3.8 0 l0 -28.48 l3.8 0 z M20.96 36.24 l5.52 0 l0 3.76 l-9.28 0 l0 -28.72 l3.76 0 l0 24.96 z M37.8 24.92 l-5.52 0 l0 11.28 l5.56 0 l0 3.8 l-9.36 0 l0 -28.56 l9.36 0 l0 3.8 l-5.56 0 l0 5.88 l5.52 0 l0 3.8 z M53.31999999999999 40.24 c-3.04 0 -5.48 -2.48 -5.48 -5.48 l0 -4.36 l3.88 0 l0 4.36 c0 0.88 0.72 1.6 1.6 1.6 s1.56 -0.72 1.56 -1.6 l0 -3.8 l-7.04 -9.72 l0 -4.96 c0 -3.04 2.44 -5.52 5.48 -5.52 c3 0 5.44 2.48 5.44 5.52 l0 4.32 l-3.88 0 l0 -4.32 c0 -0.92 -0.68 -1.6 -1.56 -1.6 s-1.6 0.68 -1.6 1.6 l0 3.64 l7.04 9.72 l0 5.12 c0 3 -2.44 5.48 -5.44 5.48 z M67.96 11.440000000000001 l3.8 0 l0 28.52 l-3.8 0 l0 -15.08 l-3.4 0 l0 15.08 l-3.8 0 l0 -28.52 l3.8 0 l0 9.68 l3.4 0 l0 -9.68 z M83.71999999999998 40 l-1.44 -9.88 l-4.04 0 l-1.32 9.88 l-3.84 0 l4.32 -28.6 l5.16 0 l5 28.6 l-3.84 0 z M78.75999999999999 26.32 l2.96 0 l-1.52 -10.4 z M99.95999999999998 40.08 l-4.08 0 l-2.2 -6.04 l-0.88 0 l0 6.04 l-3.8 0 l0 -28.64 l5.96 0 c2.64 0 4.76 2.12 4.76 4.76 l0 13.08 c0 1.72 -0.88 3.2 -2.24 4.04 z M92.79999999999998 15.239999999999998 l0 15 l2.16 0 c0.52 0 0.96 -0.44 0.96 -0.96 l0 -13.08 c0 -0.52 -0.44 -0.96 -0.96 -0.96 l-2.16 0 z M111.27999999999997 24.92 l-5.52 0 l0 11.28 l5.56 0 l0 3.8 l-9.36 0 l0 -28.56 l9.36 0 l0 3.8 l-5.56 0 l0 5.88 l5.52 0 l0 3.8 z"></path></g>
			</g>
		</svg>
	